Coordinates
version=1
nRows=54
nColumns=12
inDegrees=yes

Units are S.I. units (second, meters, Newtons, ...)
Angles are in degrees

endheader
time	SC_y	SC_z	SC_x	AC_y	AC_z	AC_x	GH_y	GH_z	GH_yy	EL_x	PS_y
       0.0              -17.36          5.899          43.48          63.92         -19.64         -18.46         -24.95          18.91         -25.59          121.1          99.79
   0.01563              -17.36          5.898          43.48          63.92         -19.64         -18.46         -24.93          18.91         -25.57          121.0           99.8
   0.03125              -17.37          5.897          43.48          63.92         -19.64         -18.45         -24.91           18.9         -25.55          121.0           99.8
   0.04688              -17.37          5.896          43.49          63.92         -19.64         -18.45         -24.89           18.9         -25.52          121.0           99.8
   0.06251              -17.37          5.894          43.49          63.92         -19.64         -18.44         -24.87          18.89         -25.49          121.0           99.8
   0.07813              -17.38          5.893          43.49          63.92         -19.64         -18.44         -24.85          18.89         -25.47          121.0           99.8
   0.09376              -17.38          5.891           43.5          63.92         -19.64         -18.43         -24.82          18.88         -25.44          121.0          99.81
    0.1094              -17.39           5.89           43.5          63.91         -19.64         -18.43         -24.79          18.87          -25.4          121.0          99.81
     0.125              -17.39          5.888          43.51          63.91         -19.64         -18.42         -24.77          18.87         -25.37          121.0          99.81
    0.1406               -17.4          5.886          43.51          63.91         -19.63         -18.41         -24.73          18.86         -25.33          121.0          99.81
    0.1563               -17.4          5.885          43.51          63.91         -19.63         -18.41          -24.7          18.85         -25.29          121.0          99.82
    0.1719              -17.41          5.882          43.52          63.91         -19.63          -18.4         -24.67          18.84         -25.25          121.0          99.82
    0.1875              -17.42           5.88          43.52           63.9         -19.63         -18.39         -24.63          18.83          -25.2          121.0          99.82
    0.2032              -17.42          5.878          43.53           63.9         -19.63         -18.38         -24.59          18.82         -25.15          120.9          99.83
    0.2188              -17.43          5.875          43.54           63.9         -19.63         -18.37         -24.54          18.81          -25.1          120.9          99.83
    0.2344              -17.44          5.872          43.54           63.9         -19.63         -18.36         -24.49           18.8         -25.04          120.9          99.84
      0.25              -17.45          5.869          43.55          63.89         -19.62         -18.35         -24.44          18.79         -24.98          120.9          99.84
    0.2657              -17.46          5.866          43.56          63.89         -19.62         -18.34         -24.38          18.78         -24.91          120.9          99.85
    0.2813              -17.47          5.862          43.57          63.88         -19.62         -18.32         -24.32          18.76         -24.83          120.9          99.85
    0.2969              -17.48          5.858          43.58          63.88         -19.62         -18.31         -24.25          18.75         -24.75          120.8          99.86
    0.3125              -17.49          5.854          43.59          63.88         -19.62         -18.29         -24.17          18.73         -24.66          120.8          99.87
    0.3282              -17.51          5.849           43.6          63.87         -19.61         -18.27         -24.09          18.71         -24.56          120.8          99.87
    0.3438              -17.53          5.844          43.61          63.86         -19.61         -18.25          -24.0          18.69         -24.45          120.8          99.88
    0.3594              -17.54          5.838          43.62          63.86         -19.61         -18.23         -23.89          18.67         -24.33          120.7          99.89
     0.375              -17.56          5.831          43.64          63.85          -19.6         -18.21         -23.78          18.64         -24.19          120.7           99.9
    0.3907              -17.59          5.824          43.66          63.84          -19.6         -18.18         -23.65          18.61         -24.04          120.6          99.91
    0.4063              -17.61          5.816          43.68          63.83         -19.59         -18.15         -23.51          18.58         -23.87          120.6          99.93
    0.4219              -17.64          5.807           43.7          63.82         -19.59         -18.11         -23.35          18.54         -23.68          120.6          99.94
    0.4376              -17.67          5.796          43.72          63.81         -19.58         -18.08         -23.17           18.5         -23.46          120.5          99.96
    0.4532              -17.71          5.784          43.75           63.8         -19.58         -18.03         -22.97          18.45         -23.22          120.4          99.98
    0.4688              -17.75          5.771          43.78          63.79         -19.57         -17.98         -22.73           18.4         -22.94          120.4          100.0
    0.4844              -17.79          5.755          43.82          63.77         -19.56         -17.92         -22.46          18.33         -22.62          120.3          100.0
    0.5001              -17.85          5.737          43.86          63.75         -19.55         -17.86         -22.15          18.26         -22.25          120.2          100.1
    0.5157              -17.91          5.717          43.91          63.73         -19.54         -17.78         -21.79          18.18         -21.82          120.1          100.1
    0.5313              -17.99          5.692          43.97           63.7         -19.52         -17.69         -21.37          18.08         -21.31          119.9          100.1
    0.5469              -18.07          5.664          44.03          63.67         -19.51         -17.58         -20.88          17.97         -20.72          119.8          100.2
    0.5626              -18.18          5.629          44.11          63.63         -19.49         -17.45         -20.29          17.83         -20.01          119.6          100.2
    0.5782               -18.3          5.588          44.21          63.59         -19.46          -17.3         -19.58          17.67         -19.16          119.4          100.3
    0.5938              -18.45          5.539          44.33          63.53         -19.44         -17.12         -18.72          17.47         -18.14          119.1          100.4
    0.6095              -18.63          5.479          44.47          63.47          -19.4         -16.89         -17.68          17.23         -16.89          118.8          100.5
    0.6251              -18.86          5.404          44.64          63.39         -19.36         -16.61         -16.39          16.93         -15.34          118.4          100.6
    0.6407              -19.14          5.311          44.86          63.29          -19.3         -16.26         -14.78          16.56         -13.42          117.9          100.7
    0.6563               -19.5          5.194          45.14          63.16         -19.24         -15.83         -12.75          16.09         -10.99          117.3          100.9
     0.672              -19.95          5.045          45.49           63.0         -19.15         -15.27         -10.17          15.49         -7.909          116.5          101.2
    0.6876              -20.53          4.854          45.94          62.79         -19.04         -14.56         -6.874          14.73         -3.962          115.4          101.5
    0.7032              -21.27           4.61          46.51          62.53          -18.9         -13.64          -2.64          13.75          1.103          114.1          101.9
    0.7188              -22.22          4.297          47.25          62.19         -18.72         -12.48          2.767           12.5          7.573          112.4          102.4
    0.7345              -23.41          3.904          48.17          61.77          -18.5         -11.01          9.567          10.93          15.71          110.3          103.0
    0.7501              -24.86          3.425           49.3          61.25         -18.22         -9.222          17.85          9.018          25.62          107.7          103.8
    0.7657              -26.54           2.87           50.6          60.65         -17.91         -7.149          27.46          6.798          37.11          104.7          104.7
    0.7813              -28.37          2.269          52.02           60.0         -17.56         -4.905          37.86          4.395          49.56          101.5          105.6
     0.797              -30.19          1.668          53.43          59.35         -17.22         -2.661          48.26          1.992           62.0          98.26          106.6
    0.8126              -31.87          1.113          54.73          58.75          -16.9        -0.5883          57.86        -0.2278          73.49          95.27          107.5
    0.8282              -33.32         0.6342          55.86          58.23         -16.62            1.2          66.15         -2.143          83.41          92.69          108.2
